#N canvas 203 225 1554 807 12;
#X obj 186 22 inlet freq;
#X obj 330 40 inlet vol;
#X obj 318 566 *~;
#X obj 418 40 inlet trig;
#X floatatom 331 76 5 0 1 0 - - - 0;
#X obj 417 70 bng 20 250 50 0 empty empty empty 0 -10 0 12 #fcfcfc #000000 #000000;
#X obj 54 482 cos~;
#X obj 55 452 phasor~ 1;
#X obj 54 531 *~;
#X obj 53 566 +~;
#X text 100 481 tremolo;
#X obj 326 767 outlet~;
#X floatatom 189 57 12 0 0 0 - - - 0;
#X obj 39 122 snapshot~;
#X obj 41 18 tgl 20 1 empty empty empty 0 -10 0 12 #fcfcfc #000000 #000000 1 1;
#X obj 40 51 metro 20;
#X obj 112 400 +;
#X obj 325 736 *~;
#X obj 547 704 hsl 170 20 0 1 0 0 empty empty empty -2 -10 0 12 #fcfcfc #000000 #000000 0 1;
#X floatatom 554 668 5 0 0 0 - - - 0;
#X obj 681 617 loadbang;
#X msg 679 641 0.8;
#X obj 376 407 vline~;
#X floatatom 35 249 5 0 0 0 - - - 0;
#X obj 372 445 *~;
#X obj 244 528 osc~, f 12;
#X obj 426 541 snapshot~;
#X obj 443 478 tgl 20 1 empty empty empty 0 -10 0 12 #fcfcfc #000000 #000000 1 1;
#X obj 445 509 metro 50;
#X floatatom 426 575 5 0 0 0 - - - 0;
#X obj 426 613 outlet LED;
#X obj 73 90 osc~ 10;
#X floatatom 54 415 5 0 0 0 - - - 0;
#X floatatom 105 520 5 0 1 0 - - - 0;
#X obj 33 183 expr ($f1 +0.25)*2;
#X text 343 408 VCA;
#X obj 682 552 inlet master_vol;
#X text 753 616 global value so TD can fade the whole install up or down;
#X obj 675 195 select 1 0;
#X floatatom 674 163 5 0 0 0 - - - 0;
#X text 756 194 bypass VCA;
#X obj 450 335 spigot;
#X obj 489 306 tgl 19 0 empty empty empty 0 -10 0 12 #fcfcfc #000000 #000000 0 1;
#X obj 418 146 t b b b, f 16;
#X floatatom 331 156 5 0 1 0 - - - 0;
#X text 335 13 vol is the per borindo max volume tha VCA will go to;
#X text 455 73 this handles the setting of the volume and triggering;
#X floatatom 628 283 5 0 0 0 - - - 0;
#X msg 735 242 0 0.5;
#X msg 625 319 \$1 0.5;
#X obj 626 390 spigot;
#X obj 655 244 t b b b;
#X obj 663 359 tgl 19 0 empty empty empty 0 -10 0 12 #fcfcfc #000000 #000000 0 1;
#X obj 144 557 text;
#X obj 1040 22 inlet freq_load;
#X obj 1175 22 inlet vol_load;
#X obj 1166 581 outlet freq;
#X obj 1296 569 outlet vol;
#X obj 201 179 quantizePentatonic;
#X obj 231 145 ftom;
#X obj 134 338 r quant;
#X obj 139 369 cyclone/switch 2 1;
#X obj 674 129 inlet b;
#X obj 766 141 print;
#X text 67 602 maybe push into full midi note??;
#X obj 753 288 t b;
#X obj 214 89 s outFreq;
#X obj 1162 541 r outFreq;
#X msg 433 243 0.6 3000 \, 0 3000 2000;
#X msg 327 204 \$1 0.5;
#X obj 121 255 expr int(pow(2 \, $f1/120)*440);
#X connect 0 0 12 0;
#X connect 0 0 70 0;
#X connect 1 0 4 0;
#X connect 2 0 17 0;
#X connect 3 0 5 0;
#X connect 4 0 44 0;
#X connect 4 0 47 0;
#X connect 5 0 43 0;
#X connect 6 0 8 0;
#X connect 7 0 6 0;
#X connect 8 0 9 0;
#X connect 12 0 59 0;
#X connect 12 0 66 0;
#X connect 13 0 34 0;
#X connect 14 0 15 0;
#X connect 15 0 13 0;
#X connect 16 0 25 0;
#X connect 17 0 11 0;
#X connect 18 0 17 1;
#X connect 19 0 18 0;
#X connect 20 0 21 0;
#X connect 21 0 19 0;
#X connect 22 0 24 0;
#X connect 22 0 24 1;
#X connect 23 0 16 0;
#X connect 24 0 26 0;
#X connect 24 0 2 1;
#X connect 25 0 2 0;
#X connect 26 0 29 0;
#X connect 27 0 28 0;
#X connect 28 0 26 0;
#X connect 29 0 30 0;
#X connect 31 0 13 0;
#X connect 32 0 7 0;
#X connect 33 0 8 1;
#X connect 33 0 9 1;
#X connect 34 0 23 0;
#X connect 36 0 19 0;
#X connect 38 0 51 0;
#X connect 38 1 48 0;
#X connect 38 1 65 0;
#X connect 39 0 38 0;
#X connect 41 0 22 0;
#X connect 42 0 41 1;
#X connect 43 0 42 0;
#X connect 43 1 68 0;
#X connect 43 2 42 0;
#X connect 44 0 69 0;
#X connect 47 0 49 0;
#X connect 48 0 22 0;
#X connect 49 0 50 0;
#X connect 50 0 22 0;
#X connect 51 1 47 0;
#X connect 51 2 52 0;
#X connect 52 0 50 1;
#X connect 54 0 12 0;
#X connect 55 0 4 0;
#X connect 58 0 61 2;
#X connect 59 0 58 0;
#X connect 60 0 61 0;
#X connect 61 0 16 1;
#X connect 62 0 39 0;
#X connect 62 0 63 0;
#X connect 65 0 52 0;
#X connect 67 0 56 0;
#X connect 68 0 41 0;
#X connect 69 0 22 0;
#X connect 70 0 61 1;
