#N canvas 0 38 1728 985 12;
#X obj 22 254 cyclone;
#X obj 274 13 netreceive -u -b 3010;
#X obj 273 46 oscparse, f 34;
#X obj 515 81 list split;
#X floatatom 619 62 5 0 0 0 - - - 0;
#X listbox 515 138 20 0 0 0 - - - 0;
#X listbox 549 108 20 0 0 0 - - - 0;
#X msg 274 95 \$1 \$2;
#X obj 268 333 s f1, f 7;
#X obj 343 333 s f2;
#X obj 419 333 s f3;
#X obj 496 330 s f4;
#X obj 571 331 s f5;
#X obj 646 332 s f6;
#X obj 722 332 s f7;
#X obj 798 333 s f8;
#X obj 280 211 route vol1 vol2 vol3 vol4 vol5 vol6 vol7 vol8, f 50;
#X obj 280 238 s v1;
#X obj 323 240 s v2;
#X obj 367 238 s v3;
#X obj 410 239 s v4;
#X obj 453 238 s v5;
#X obj 496 238 s v6;
#X obj 540 238 s v7;
#X obj 583 239 s v8;
#X msg 754 67 \; pd dsp 1;
#X obj 747 23 loadbang;
#X obj 660 211 route t1 t2 t3 t4 t5 t6 t7 t8, f 50;
#X obj 660 238 s t1;
#X obj 703 238 s t2;
#X obj 746 240 s t3;
#X obj 791 239 s t4;
#X obj 834 239 s t5;
#X obj 876 239 s t6;
#X obj 920 239 s t7;
#X obj 963 239 s t8;
#X obj 725 403 microtonal_LED_OEC;
#X obj 83 757 s led8;
#X obj 268 302 route freq1 freq2 freq3 freq4 freq5 freq6 freq7 freq8, f 87;
#X obj 13 476 r f1;
#X floatatom 13 509 5 0 0 0 - - - 0;
#X obj 49 410 r v1;
#X floatatom 49 437 5 0 0 0 - - - 0;
#X obj 87 485 r t1;
#X obj 85 510 bng 19 250 50 0 empty empty empty 0 -10 0 12 #fcfcfc #000000 #000000;
#X obj 121 429 r b1;
#X obj 156 500 r mv;
#X obj 121 458 tgl 19 0 empty empty empty 0 -10 0 12 #fcfcfc #000000 #000000 0 1;
#X obj 1117 121 text define borindo_save;
#X obj 1055 180 text get borindo_save;
#X floatatom 156 583 5 0 0 0 - - - 0;
#X floatatom 228 582 5 0 0 0 - - - 0;
#X obj 25 886 pack f f f f f f f f f f f f f f f f, f 242;
#X obj 29 938 text set borindo_save;
#X obj 83 586 s led1;
#X floatatom 281 510 5 0 0 0 - - - 0;
#X floatatom 317 438 5 0 0 0 - - - 0;
#X obj 353 511 bng 19 250 50 0 empty empty empty 0 -10 0 12 #fcfcfc #000000 #000000;
#X obj 424 501 r mv;
#X obj 389 459 tgl 19 0 empty empty empty 0 -10 0 12 #fcfcfc #000000 #000000 0 1;
#X floatatom 424 584 5 0 0 0 - - - 0;
#X floatatom 496 583 5 0 0 0 - - - 0;
#X obj 14 543 borindo, f 31;
#X obj 282 543 borindo, f 31;
#X obj 281 477 r f2;
#X obj 317 411 r v2;
#X obj 355 486 r t2;
#X obj 389 430 r b2;
#X floatatom 539 683 5 0 0 0 - - - 0;
#X floatatom 575 611 5 0 0 0 - - - 0;
#X obj 611 684 bng 19 250 50 0 empty empty empty 0 -10 0 12 #fcfcfc #000000 #000000;
#X obj 682 674 r mv;
#X obj 647 632 tgl 19 0 empty empty empty 0 -10 0 12 #fcfcfc #000000 #000000 0 1;
#X floatatom 682 745 5 0 0 0 - - - 0;
#X floatatom 754 745 5 0 0 0 - - - 0;
#X obj 540 716 borindo, f 31;
#X obj 351 587 s led2;
#X obj 539 650 r f3;
#X obj 575 584 r v3;
#X obj 647 603 r b3;
#X obj 613 659 r t3;
#X obj 611 748 s led3;
#X floatatom 791 630 5 0 0 0 - - - 0;
#X floatatom 827 558 5 0 0 0 - - - 0;
#X obj 863 631 bng 19 250 50 0 empty empty empty 0 -10 0 12 #fcfcfc #000000 #000000;
#X obj 934 621 r mv;
#X obj 899 579 tgl 19 0 empty empty empty 0 -10 0 12 #fcfcfc #000000 #000000 0 1;
#X floatatom 934 704 5 0 0 0 - - - 0;
#X floatatom 1006 703 5 0 0 0 - - - 0;
#X obj 792 663 borindo, f 31;
#X obj 26 828 r fSave1;
#X obj 158 825 r vSave1;
#X obj 156 612 s fSave1;
#X obj 226 611 s vSave1;
#X obj 247 825 r fSave2;
#X obj 359 826 r vSave2;
#X obj 473 827 r fSave3;
#X obj 570 828 r vSave3;
#X obj 689 827 r fSave4;
#X obj 901 823 r fSave5;
#X obj 1014 819 r vSave5;
#X obj 1135 823 r fSave6;
#X obj 1232 824 r vSave6;
#X obj 1348 824 r fSave7;
#X obj 1453 820 r vSave7;
#X obj 1570 822 r fSave8;
#X obj 1685 822 r vSave8;
#X obj 676 769 s fSave3;
#X obj 746 768 s vSave3;
#X obj 425 609 s fSave2;
#X obj 495 608 s vSave2;
#X obj 861 707 s led4;
#X obj 791 597 r f4;
#X obj 827 531 r v4;
#X obj 865 606 r t4;
#X obj 899 550 r b4;
#X obj 932 738 s fSave4;
#X obj 1002 737 s vSave4;
#X floatatom 1047 421 5 0 0 0 - - - 0;
#X floatatom 1083 349 5 0 0 0 - - - 0;
#X obj 1119 422 bng 19 250 50 0 empty empty empty 0 -10 0 12 #fcfcfc #000000 #000000;
#X obj 1190 412 r mv;
#X obj 1155 370 tgl 19 0 empty empty empty 0 -10 0 12 #fcfcfc #000000 #000000 0 1;
#X floatatom 1190 495 5 0 0 0 - - - 0;
#X floatatom 1262 494 5 0 0 0 - - - 0;
#X obj 1048 454 borindo, f 31;
#X obj 1047 388 r f5;
#X obj 1083 322 r v5;
#X obj 1121 397 r t5;
#X obj 1155 341 r b5;
#X obj 1117 498 s led5;
#X obj 1188 529 s fSave5;
#X obj 1258 528 s vSave5;
#X floatatom 1216 663 5 0 0 0 - - - 0;
#X floatatom 1252 591 5 0 0 0 - - - 0;
#X obj 1288 664 bng 19 250 50 0 empty empty empty 0 -10 0 12 #fcfcfc #000000 #000000;
#X obj 1359 654 r mv;
#X obj 1324 612 tgl 19 0 empty empty empty 0 -10 0 12 #fcfcfc #000000 #000000 0 1;
#X floatatom 1359 737 5 0 0 0 - - - 0;
#X floatatom 1431 736 5 0 0 0 - - - 0;
#X obj 1217 696 borindo, f 31;
#X obj 1216 630 r f6;
#X obj 1252 564 r v6;
#X obj 1290 639 r t6;
#X obj 1324 583 r b6;
#X obj 1286 740 s led6;
#X obj 1357 771 s fSave6;
#X obj 1427 770 s vSave6;
#X floatatom 1404 519 5 0 0 0 - - - 0;
#X floatatom 1440 447 5 0 0 0 - - - 0;
#X obj 1476 520 bng 19 250 50 0 empty empty empty 0 -10 0 12 #fcfcfc #000000 #000000;
#X obj 1547 510 r mv;
#X obj 1512 468 tgl 19 0 empty empty empty 0 -10 0 12 #fcfcfc #000000 #000000 0 1;
#X floatatom 1547 593 5 0 0 0 - - - 0;
#X floatatom 1619 592 5 0 0 0 - - - 0;
#X obj 1405 552 borindo, f 31;
#X obj 1478 495 r t6;
#X obj 1404 486 r f7;
#X obj 1440 420 r v7;
#X obj 1512 439 r b7;
#X obj 1545 627 s fSave7;
#X obj 1615 626 s vSave7;
#X obj 1474 596 s led7;
#X floatatom 1591 427 5 0 0 0 - - - 0;
#X floatatom 1627 355 5 0 0 0 - - - 0;
#X obj 1663 428 bng 19 250 50 0 empty empty empty 0 -10 0 12 #fcfcfc #000000 #000000;
#X obj 1734 418 r mv;
#X obj 1699 376 tgl 19 0 empty empty empty 0 -10 0 12 #fcfcfc #000000 #000000 0 1;
#X floatatom 1734 501 5 0 0 0 - - - 0;
#X floatatom 1806 500 5 0 0 0 - - - 0;
#X obj 1592 460 borindo, f 31;
#X obj 1591 394 r f8;
#X obj 1627 328 r v8;
#X obj 1699 347 r b8;
#X obj 1665 403 r t8;
#X obj 1661 504 s led8;
#X obj 1732 535 s fSave8;
#X obj 1802 534 s vSave8;
#X text 193 922 save data - freq and vol so tuned borindos can be played by any OSC signals;
#X msg 1054 153 0;
#X obj 1055 218 unpack f f f f f f f f f f f f f f f f f, f 115;
#X obj 182 302 route mv;
#X obj 181 334 s mv;
#X obj 1056 246 s fLoad1;
#X obj 1103 271 s vLoad1;
#X obj 1143 244 s fLoad2;
#X obj 1190 269 s vLoad2;
#X obj 1240 247 s fLoad3;
#X obj 1287 272 s vLoad3;
#X obj 1327 245 s fLoad4;
#X obj 1374 270 s vLoad4;
#X obj 1443 250 s fLoad5;
#X obj 1490 275 s vLoad5;
#X obj 1530 248 s fLoad6;
#X obj 1577 273 s vLoad6;
#X obj 1627 251 s fLoad7;
#X obj 1674 276 s vLoad7;
#X obj 1714 249 s fLoad8;
#X obj 1761 274 s vLoad8;
#X obj 193 452 r fLoad1;
#X obj 209 481 r vLoad1;
#X obj 466 466 r fLoad2;
#X obj 482 495 r vLoad2;
#X obj 708 627 r fLoad3;
#X obj 724 656 r vLoad3;
#X obj 974 588 r fLoad4;
#X obj 990 617 r vLoad4;
#X obj 1236 365 r fLoad5;
#X obj 1252 394 r vLoad5;
#X obj 1402 629 r fLoad6;
#X obj 1418 658 r vLoad6;
#X obj 1578 488 r fLoad7;
#X obj 1594 517 r vLoad7;
#X obj 1767 387 r fLoad8;
#X obj 1783 416 r vLoad8;
#X obj 25 797 dac~ 1 2 3 4 5 6 7 8, f 242;
#X obj 993 301 print;
#X obj 1086 -3 loadbang;
#X msg 1118 88 read borindo_save.txt;
#X obj 1085 31 t b b;
#X msg 1150 48 write borindo_save.txt;
#X obj 849 913 bng 19 250 50 0 empty empty empty 0 -10 0 12 #fcfcfc #000000 #000000;
#X obj 1155 19 r save;
#X obj 852 944 s save;
#X obj 158 851 t b f;
#X obj 25 854 t b f;
#X obj 247 852 t b f;
#X obj 360 853 t b f;
#X obj 473 854 t b f;
#X obj 570 851 t b f;
#X obj 698 857 t b f;
#X obj 798 827 r vSave4;
#X obj 813 853 t b f;
#X obj 901 849 t b f;
#X obj 1013 846 t b f;
#X obj 1149 853 t b f;
#X obj 1261 850 t b f;
#X obj 1372 852 t b f;
#X obj 1484 849 t b f;
#X obj 1603 851 t b f;
#X obj 1715 848 t b f;
#X obj 128 197 route quant;
#X obj 127 229 s quant;
#X text 1339 125 handling of save and load data;
#X text 723 141 oscrouting;
#X text 652 501 HELLO!!!!;
#X connect 1 0 2 0;
#X connect 2 0 3 0;
#X connect 2 0 7 0;
#X connect 2 1 4 0;
#X connect 3 0 5 0;
#X connect 3 1 6 0;
#X connect 4 0 3 1;
#X connect 7 0 16 0;
#X connect 7 0 27 0;
#X connect 7 0 38 0;
#X connect 7 0 181 0;
#X connect 7 0 241 0;
#X connect 16 0 17 0;
#X connect 16 1 18 0;
#X connect 16 2 19 0;
#X connect 16 3 20 0;
#X connect 16 4 21 0;
#X connect 16 5 22 0;
#X connect 16 6 23 0;
#X connect 16 7 24 0;
#X connect 26 0 25 0;
#X connect 27 0 28 0;
#X connect 27 1 29 0;
#X connect 27 2 30 0;
#X connect 27 3 31 0;
#X connect 27 4 32 0;
#X connect 27 5 33 0;
#X connect 27 6 34 0;
#X connect 27 7 35 0;
#X connect 38 0 8 0;
#X connect 38 1 9 0;
#X connect 38 2 10 0;
#X connect 38 3 11 0;
#X connect 38 4 12 0;
#X connect 38 5 13 0;
#X connect 38 6 14 0;
#X connect 38 7 15 0;
#X connect 39 0 40 0;
#X connect 40 0 62 0;
#X connect 41 0 42 0;
#X connect 42 0 62 1;
#X connect 43 0 44 0;
#X connect 44 0 62 2;
#X connect 45 0 47 0;
#X connect 46 0 62 4;
#X connect 47 0 62 3;
#X connect 49 0 180 0;
#X connect 50 0 92 0;
#X connect 51 0 93 0;
#X connect 52 0 221 0;
#X connect 52 0 53 0;
#X connect 55 0 63 0;
#X connect 56 0 63 1;
#X connect 57 0 63 2;
#X connect 58 0 63 4;
#X connect 59 0 63 3;
#X connect 60 0 109 0;
#X connect 61 0 110 0;
#X connect 62 0 215 0;
#X connect 62 1 54 0;
#X connect 62 2 50 0;
#X connect 62 3 51 0;
#X connect 63 0 215 1;
#X connect 63 1 76 0;
#X connect 63 2 60 0;
#X connect 63 3 61 0;
#X connect 64 0 55 0;
#X connect 65 0 56 0;
#X connect 66 0 57 0;
#X connect 67 0 59 0;
#X connect 68 0 75 0;
#X connect 69 0 75 1;
#X connect 70 0 75 2;
#X connect 71 0 75 4;
#X connect 72 0 75 3;
#X connect 73 0 107 0;
#X connect 74 0 108 0;
#X connect 75 0 215 2;
#X connect 75 1 81 0;
#X connect 75 2 73 0;
#X connect 75 3 74 0;
#X connect 77 0 68 0;
#X connect 78 0 69 0;
#X connect 79 0 72 0;
#X connect 80 0 70 0;
#X connect 82 0 89 0;
#X connect 83 0 89 1;
#X connect 84 0 89 2;
#X connect 85 0 89 4;
#X connect 86 0 89 3;
#X connect 87 0 116 0;
#X connect 88 0 117 0;
#X connect 89 0 215 3;
#X connect 89 1 111 0;
#X connect 89 2 87 0;
#X connect 89 3 88 0;
#X connect 90 0 225 0;
#X connect 91 0 224 0;
#X connect 94 0 226 0;
#X connect 95 0 227 0;
#X connect 96 0 228 0;
#X connect 97 0 229 0;
#X connect 98 0 230 0;
#X connect 99 0 233 0;
#X connect 100 0 234 0;
#X connect 101 0 235 0;
#X connect 102 0 236 0;
#X connect 103 0 237 0;
#X connect 104 0 238 0;
#X connect 105 0 239 0;
#X connect 106 0 240 0;
#X connect 112 0 82 0;
#X connect 113 0 83 0;
#X connect 114 0 84 0;
#X connect 115 0 86 0;
#X connect 118 0 125 0;
#X connect 119 0 125 1;
#X connect 120 0 125 2;
#X connect 121 0 125 4;
#X connect 122 0 125 3;
#X connect 123 0 131 0;
#X connect 124 0 132 0;
#X connect 125 0 215 4;
#X connect 125 1 130 0;
#X connect 125 2 123 0;
#X connect 125 3 124 0;
#X connect 126 0 118 0;
#X connect 127 0 119 0;
#X connect 128 0 120 0;
#X connect 129 0 122 0;
#X connect 133 0 140 0;
#X connect 134 0 140 1;
#X connect 135 0 140 2;
#X connect 136 0 140 4;
#X connect 137 0 140 3;
#X connect 138 0 146 0;
#X connect 139 0 147 0;
#X connect 140 0 215 5;
#X connect 140 1 145 0;
#X connect 140 2 138 0;
#X connect 140 3 139 0;
#X connect 141 0 133 0;
#X connect 142 0 134 0;
#X connect 143 0 135 0;
#X connect 144 0 137 0;
#X connect 148 0 155 0;
#X connect 149 0 155 1;
#X connect 150 0 155 2;
#X connect 151 0 155 4;
#X connect 152 0 155 3;
#X connect 153 0 160 0;
#X connect 154 0 161 0;
#X connect 155 0 215 6;
#X connect 155 1 162 0;
#X connect 155 2 153 0;
#X connect 155 3 154 0;
#X connect 156 0 150 0;
#X connect 157 0 148 0;
#X connect 158 0 149 0;
#X connect 159 0 152 0;
#X connect 163 0 170 0;
#X connect 164 0 170 1;
#X connect 165 0 170 2;
#X connect 166 0 170 4;
#X connect 167 0 170 3;
#X connect 168 0 176 0;
#X connect 169 0 177 0;
#X connect 170 0 215 7;
#X connect 170 1 175 0;
#X connect 170 2 168 0;
#X connect 170 3 169 0;
#X connect 171 0 163 0;
#X connect 172 0 164 0;
#X connect 173 0 167 0;
#X connect 174 0 165 0;
#X connect 179 0 49 0;
#X connect 180 0 183 0;
#X connect 180 0 216 0;
#X connect 180 1 184 0;
#X connect 180 2 185 0;
#X connect 180 3 186 0;
#X connect 180 4 187 0;
#X connect 180 5 188 0;
#X connect 180 6 189 0;
#X connect 180 7 190 0;
#X connect 180 8 191 0;
#X connect 180 9 192 0;
#X connect 180 10 193 0;
#X connect 180 11 194 0;
#X connect 180 12 195 0;
#X connect 180 13 196 0;
#X connect 180 14 197 0;
#X connect 180 15 198 0;
#X connect 181 0 182 0;
#X connect 199 0 62 5;
#X connect 200 0 62 6;
#X connect 201 0 63 5;
#X connect 202 0 63 6;
#X connect 203 0 75 5;
#X connect 204 0 75 6;
#X connect 205 0 89 5;
#X connect 206 0 89 6;
#X connect 207 0 125 5;
#X connect 208 0 125 6;
#X connect 209 0 140 5;
#X connect 210 0 140 6;
#X connect 211 0 155 5;
#X connect 212 0 155 6;
#X connect 213 0 170 5;
#X connect 214 0 170 6;
#X connect 217 0 219 0;
#X connect 218 0 48 0;
#X connect 219 0 179 0;
#X connect 219 1 218 0;
#X connect 220 0 48 0;
#X connect 221 0 223 0;
#X connect 222 0 220 0;
#X connect 224 0 52 0;
#X connect 224 1 52 1;
#X connect 225 0 52 0;
#X connect 225 1 52 0;
#X connect 226 0 52 0;
#X connect 226 1 52 2;
#X connect 227 0 52 0;
#X connect 227 1 52 3;
#X connect 228 0 52 0;
#X connect 228 1 52 4;
#X connect 229 0 52 0;
#X connect 229 1 52 5;
#X connect 230 0 52 0;
#X connect 230 1 52 6;
#X connect 231 0 232 0;
#X connect 232 0 52 0;
#X connect 232 1 52 7;
#X connect 233 0 52 0;
#X connect 233 1 52 8;
#X connect 234 0 52 0;
#X connect 234 1 52 9;
#X connect 235 0 52 0;
#X connect 235 1 52 10;
#X connect 236 0 52 0;
#X connect 236 1 52 11;
#X connect 237 0 52 0;
#X connect 237 1 52 12;
#X connect 238 0 52 0;
#X connect 238 1 52 13;
#X connect 239 0 52 0;
#X connect 239 1 52 14;
#X connect 240 0 52 0;
#X connect 240 1 52 15;
#X connect 241 0 242 0;
