#N canvas 145 422 1103 491 12;
#X obj 96 372 netsend -u -b;
#X msg 30 269 connect localhost 8000;
#X obj 90 425 tgl 20 0 empty empty empty 0 -10 0 12 #fcfcfc #000000 #000000 0 1;
#X msg 460 230 \$1;
#X msg 605 233 \$1;
#X obj 604 288 oscformat -f f ch2;
#X msg 457 357 \$1;
#X msg 602 360 \$1;
#X msg 769 233 \$1;
#X msg 914 236 \$1;
#X msg 766 360 \$1;
#X msg 911 363 \$1;
#X obj 459 285 oscformat -f f ch1;
#X obj 768 288 oscformat -f f ch3;
#X obj 913 291 oscformat -f f ch4;
#X obj 456 412 oscformat -f f ch5;
#X obj 601 415 oscformat -f f ch6;
#X obj 765 415 oscformat -f f ch7;
#X obj 910 418 oscformat -f f ch8;
#X obj 461 198 r led1;
#X obj 604 199 r led2;
#X obj 770 201 r led3;
#X obj 908 200 r led4;
#X obj 456 328 r led5;
#X obj 602 325 r led6;
#X obj 767 330 r led7;
#X obj 914 330 r led8;
#X obj 441 103 s led1;
#X obj 492 103 s led2;
#X obj 546 105 s led3;
#X obj 604 105 s led4;
#X obj 667 104 s led5;
#X obj 724 106 s led6;
#X obj 779 106 s led7;
#X obj 843 107 s led8;
#X obj 31 220 loadbang;
#X obj 70 23 inlet;
#X floatatom 429 50 5 0 1 0 - - - 0;
#X connect 0 0 2 0;
#X connect 1 0 0 0;
#X connect 3 0 12 0;
#X connect 4 0 5 0;
#X connect 5 0 0 0;
#X connect 6 0 15 0;
#X connect 7 0 16 0;
#X connect 8 0 13 0;
#X connect 9 0 14 0;
#X connect 10 0 17 0;
#X connect 11 0 18 0;
#X connect 12 0 0 0;
#X connect 13 0 0 0;
#X connect 14 0 0 0;
#X connect 15 0 0 0;
#X connect 16 0 0 0;
#X connect 17 0 0 0;
#X connect 18 0 0 0;
#X connect 19 0 3 0;
#X connect 20 0 4 0;
#X connect 21 0 8 0;
#X connect 22 0 9 0;
#X connect 23 0 6 0;
#X connect 24 0 7 0;
#X connect 25 0 10 0;
#X connect 26 0 11 0;
#X connect 35 0 1 0;
#X connect 37 0 27 0;
#X connect 37 0 34 0;
#X connect 37 0 33 0;
#X connect 37 0 32 0;
#X connect 37 0 30 0;
#X connect 37 0 29 0;
#X connect 37 0 28 0;
