#N canvas 703 356 450 485 12;
#X obj 65 47 inlet;
#X obj 67 81 t f f;
#X text 122 81 split for octave and note;
#X obj 98 113 % 12;
#X obj 101 150 moses 1.5;
#X msg 100 185 0;
#X obj 159 200 moses 4;
#X msg 156 231 3;
#X obj 203 238 moses 6;
#X obj 248 288 moses 8.5;
#X obj 308 324 moses 11;
#X msg 202 273 5;
#X msg 258 319 7;
#X msg 314 355 10;
#X msg 372 361 0;
#X obj 69 286 / 12;
#X obj 68 322 int;
#X obj 69 361 * 12;
#X obj 69 408 +, f 25;
#X obj 69 459 outlet;
#X connect 0 0 1 0;
#X connect 1 0 15 0;
#X connect 1 1 3 0;
#X connect 3 0 4 0;
#X connect 4 0 5 0;
#X connect 4 1 6 0;
#X connect 5 0 18 1;
#X connect 6 0 7 0;
#X connect 6 1 8 0;
#X connect 7 0 18 1;
#X connect 8 0 11 0;
#X connect 8 1 9 0;
#X connect 9 0 12 0;
#X connect 9 1 10 0;
#X connect 10 0 13 0;
#X connect 10 1 14 0;
#X connect 11 0 18 1;
#X connect 12 0 18 1;
#X connect 13 0 18 1;
#X connect 14 0 18 1;
#X connect 15 0 16 0;
#X connect 16 0 17 0;
#X connect 17 0 18 0;
#X connect 18 0 19 0;
